<mxfile host="app.diagrams.net" agent="Mozilla/5.0 (Windows NT 10.0; Win64; x64) AppleWebKit/537.36 (KHTML, like Gecko) Chrome/129.0.0.0 Safari/537.36" version="24.8.0">
  <diagram name="Page-1" id="2LB1lQOi3DEtZ7YwC5-Z">
    <mxGraphModel dx="2637" dy="1428" grid="0" gridSize="10" guides="1" tooltips="1" connect="1" arrows="1" fold="1" page="0" pageScale="1" pageWidth="827" pageHeight="1169" math="0" shadow="0">
      <root>
        <mxCell id="0" />
        <mxCell id="1" parent="0" />
        <mxCell id="pwTyt4rwV_IsXeTUHluR-1" value="" style="whiteSpace=wrap;html=1;aspect=fixed;" parent="1" vertex="1">
          <mxGeometry x="-49" y="-282" width="900" height="900" as="geometry" />
        </mxCell>
        <mxCell id="pwTyt4rwV_IsXeTUHluR-2" value="&lt;font style=&quot;font-size: 19px;&quot;&gt;volunteer&lt;/font&gt;" style="shape=umlActor;verticalLabelPosition=bottom;verticalAlign=top;html=1;outlineConnect=0;" parent="1" vertex="1">
          <mxGeometry x="-151" y="-9" width="30" height="60" as="geometry" />
        </mxCell>
        <mxCell id="pwTyt4rwV_IsXeTUHluR-3" value="&lt;font style=&quot;font-size: 19px;&quot;&gt;organization&lt;/font&gt;" style="shape=umlActor;verticalLabelPosition=bottom;verticalAlign=top;html=1;outlineConnect=0;" parent="1" vertex="1">
          <mxGeometry x="782" y="13" width="30" height="60" as="geometry" />
        </mxCell>
        <mxCell id="pwTyt4rwV_IsXeTUHluR-5" value="&lt;font style=&quot;font-size: 19px;&quot;&gt;edit profile&lt;/font&gt;" style="ellipse;whiteSpace=wrap;html=1;" parent="1" vertex="1">
          <mxGeometry x="214" y="-40" width="120" height="80" as="geometry" />
        </mxCell>
        <mxCell id="pwTyt4rwV_IsXeTUHluR-6" value="&lt;font style=&quot;font-size: 19px;&quot;&gt;delete account&lt;/font&gt;" style="ellipse;whiteSpace=wrap;html=1;" parent="1" vertex="1">
          <mxGeometry x="199" y="51" width="130" height="80" as="geometry" />
        </mxCell>
        <mxCell id="pwTyt4rwV_IsXeTUHluR-7" value="&lt;font style=&quot;font-size: 19px;&quot;&gt;Use Case Diagram&lt;/font&gt;" style="text;html=1;align=center;verticalAlign=middle;whiteSpace=wrap;rounded=0;" parent="1" vertex="1">
          <mxGeometry x="262" y="-271" width="166" height="30" as="geometry" />
        </mxCell>
        <mxCell id="pwTyt4rwV_IsXeTUHluR-21" value="" style="endArrow=classic;html=1;rounded=0;entryX=0;entryY=0.5;entryDx=0;entryDy=0;" parent="1" target="pwTyt4rwV_IsXeTUHluR-26" edge="1">
          <mxGeometry width="50" height="50" relative="1" as="geometry">
            <mxPoint x="-97" y="39" as="sourcePoint" />
            <mxPoint x="336.00000000000364" y="-32" as="targetPoint" />
            <Array as="points" />
          </mxGeometry>
        </mxCell>
        <mxCell id="pwTyt4rwV_IsXeTUHluR-22" value="" style="endArrow=classic;html=1;rounded=0;entryX=-0.011;entryY=0.618;entryDx=0;entryDy=0;entryPerimeter=0;" parent="1" target="pwTyt4rwV_IsXeTUHluR-4" edge="1">
          <mxGeometry width="50" height="50" relative="1" as="geometry">
            <mxPoint x="-106" y="24" as="sourcePoint" />
            <mxPoint x="340" y="29" as="targetPoint" />
          </mxGeometry>
        </mxCell>
        <mxCell id="pwTyt4rwV_IsXeTUHluR-23" value="" style="endArrow=classic;html=1;rounded=0;entryX=0;entryY=0.5;entryDx=0;entryDy=0;" parent="1" target="pwTyt4rwV_IsXeTUHluR-5" edge="1">
          <mxGeometry width="50" height="50" relative="1" as="geometry">
            <mxPoint x="-83" y="57" as="sourcePoint" />
            <mxPoint x="346" y="-22" as="targetPoint" />
          </mxGeometry>
        </mxCell>
        <mxCell id="pwTyt4rwV_IsXeTUHluR-25" value="" style="endArrow=classic;html=1;rounded=0;entryX=0;entryY=0.5;entryDx=0;entryDy=0;" parent="1" target="pwTyt4rwV_IsXeTUHluR-6" edge="1">
          <mxGeometry width="50" height="50" relative="1" as="geometry">
            <mxPoint x="-83" y="68" as="sourcePoint" />
            <mxPoint x="307" y="170" as="targetPoint" />
            <Array as="points">
              <mxPoint x="-83" y="68" />
            </Array>
          </mxGeometry>
        </mxCell>
        <mxCell id="pwTyt4rwV_IsXeTUHluR-26" value="&lt;span style=&quot;font-size: 19px;&quot;&gt;log in&lt;/span&gt;" style="ellipse;whiteSpace=wrap;html=1;" parent="1" vertex="1">
          <mxGeometry x="380" y="259" width="127" height="69" as="geometry" />
        </mxCell>
        <mxCell id="pwTyt4rwV_IsXeTUHluR-27" value="" style="endArrow=classic;html=1;rounded=0;entryX=1;entryY=0.5;entryDx=0;entryDy=0;" parent="1" target="pwTyt4rwV_IsXeTUHluR-26" edge="1">
          <mxGeometry width="50" height="50" relative="1" as="geometry">
            <mxPoint x="780" y="49" as="sourcePoint" />
            <mxPoint x="657.0000000000036" y="-75" as="targetPoint" />
          </mxGeometry>
        </mxCell>
        <mxCell id="pwTyt4rwV_IsXeTUHluR-29" value="" style="endArrow=classic;html=1;rounded=0;entryX=1;entryY=0.5;entryDx=0;entryDy=0;" parent="1" target="pwTyt4rwV_IsXeTUHluR-4" edge="1">
          <mxGeometry width="50" height="50" relative="1" as="geometry">
            <mxPoint x="779" y="49" as="sourcePoint" />
            <mxPoint x="357" y="-110" as="targetPoint" />
          </mxGeometry>
        </mxCell>
        <mxCell id="pwTyt4rwV_IsXeTUHluR-4" value="&lt;span style=&quot;font-size: 19px;&quot;&gt;sign up&lt;/span&gt;" style="ellipse;whiteSpace=wrap;html=1;" parent="1" vertex="1">
          <mxGeometry x="194" y="-219" width="127" height="69" as="geometry" />
        </mxCell>
        <mxCell id="pwTyt4rwV_IsXeTUHluR-30" style="edgeStyle=orthogonalEdgeStyle;rounded=0;orthogonalLoop=1;jettySize=auto;html=1;exitX=0.5;exitY=1;exitDx=0;exitDy=0;" parent="1" source="pwTyt4rwV_IsXeTUHluR-1" target="pwTyt4rwV_IsXeTUHluR-1" edge="1">
          <mxGeometry relative="1" as="geometry" />
        </mxCell>
        <mxCell id="JrU6R_t-beRwXvnHJSxJ-1" value="&lt;font style=&quot;font-size: 19px;&quot;&gt;Post oppritunity&lt;/font&gt;" style="ellipse;whiteSpace=wrap;html=1;" parent="1" vertex="1">
          <mxGeometry x="291" y="129" width="130" height="80" as="geometry" />
        </mxCell>
        <mxCell id="JrU6R_t-beRwXvnHJSxJ-2" value="&lt;font style=&quot;font-size: 19px;&quot;&gt;edit oppritunity&lt;/font&gt;" style="ellipse;whiteSpace=wrap;html=1;" parent="1" vertex="1">
          <mxGeometry x="250" y="218" width="130" height="80" as="geometry" />
        </mxCell>
        <mxCell id="JrU6R_t-beRwXvnHJSxJ-3" value="&lt;font style=&quot;font-size: 19px;&quot;&gt;delete oppritunity&lt;/font&gt;" style="ellipse;whiteSpace=wrap;html=1;" parent="1" vertex="1">
          <mxGeometry x="234" y="313" width="130" height="80" as="geometry" />
        </mxCell>
        <mxCell id="JrU6R_t-beRwXvnHJSxJ-4" value="&lt;font style=&quot;font-size: 19px;&quot;&gt;manage request&lt;/font&gt;" style="ellipse;whiteSpace=wrap;html=1;" parent="1" vertex="1">
          <mxGeometry x="352" y="381" width="130" height="80" as="geometry" />
        </mxCell>
        <mxCell id="JrU6R_t-beRwXvnHJSxJ-5" value="&lt;font style=&quot;font-size: 19px;&quot;&gt;accpect request&lt;/font&gt;" style="ellipse;whiteSpace=wrap;html=1;" parent="1" vertex="1">
          <mxGeometry x="460" y="138" width="130" height="80" as="geometry" />
        </mxCell>
        <mxCell id="JrU6R_t-beRwXvnHJSxJ-6" value="&lt;font style=&quot;font-size: 19px;&quot;&gt;reject request&lt;/font&gt;" style="ellipse;whiteSpace=wrap;html=1;" parent="1" vertex="1">
          <mxGeometry x="594" y="149" width="130" height="80" as="geometry" />
        </mxCell>
        <mxCell id="JrU6R_t-beRwXvnHJSxJ-7" value="" style="rounded=0;whiteSpace=wrap;html=1;" parent="1" vertex="1">
          <mxGeometry x="-91" y="1115" width="899" height="979" as="geometry" />
        </mxCell>
        <mxCell id="JrU6R_t-beRwXvnHJSxJ-10" value="&lt;font style=&quot;font-size: 19px;&quot;&gt;delete opportunity&lt;/font&gt;" style="ellipse;whiteSpace=wrap;html=1;" parent="1" vertex="1">
          <mxGeometry x="276" y="1814" width="130" height="80" as="geometry" />
        </mxCell>
        <mxCell id="JrU6R_t-beRwXvnHJSxJ-11" value="&lt;font style=&quot;font-size: 19px;&quot;&gt;edit opportunity&lt;/font&gt;" style="ellipse;whiteSpace=wrap;html=1;" parent="1" vertex="1">
          <mxGeometry x="274" y="1720" width="130" height="80" as="geometry" />
        </mxCell>
        <mxCell id="JrU6R_t-beRwXvnHJSxJ-12" value="&lt;font style=&quot;font-size: 19px;&quot;&gt;post opportunity&lt;/font&gt;" style="ellipse;whiteSpace=wrap;html=1;" parent="1" vertex="1">
          <mxGeometry x="271.5" y="1541" width="130" height="80" as="geometry" />
        </mxCell>
        <mxCell id="JrU6R_t-beRwXvnHJSxJ-13" value="&lt;font style=&quot;font-size: 19px;&quot;&gt;accpect or reject request&lt;/font&gt;" style="ellipse;whiteSpace=wrap;html=1;" parent="1" vertex="1">
          <mxGeometry x="472" y="1884" width="130" height="80" as="geometry" />
        </mxCell>
        <mxCell id="JrU6R_t-beRwXvnHJSxJ-16" value="&lt;font style=&quot;font-size: 19px;&quot;&gt;delete account&lt;/font&gt;" style="ellipse;whiteSpace=wrap;html=1;" parent="1" vertex="1">
          <mxGeometry x="271.5" y="1430" width="130" height="80" as="geometry" />
        </mxCell>
        <mxCell id="JrU6R_t-beRwXvnHJSxJ-17" value="&lt;font style=&quot;font-size: 19px;&quot;&gt;edit profile&lt;/font&gt;" style="ellipse;whiteSpace=wrap;html=1;" parent="1" vertex="1">
          <mxGeometry x="279" y="1334" width="120" height="80" as="geometry" />
        </mxCell>
        <mxCell id="JrU6R_t-beRwXvnHJSxJ-18" value="&lt;span style=&quot;font-size: 19px;&quot;&gt;log in&lt;/span&gt;" style="ellipse;whiteSpace=wrap;html=1;" parent="1" vertex="1">
          <mxGeometry x="232" y="-119" width="127" height="69" as="geometry" />
        </mxCell>
        <mxCell id="JrU6R_t-beRwXvnHJSxJ-19" value="&lt;span style=&quot;font-size: 19px;&quot;&gt;log in&lt;/span&gt;" style="ellipse;whiteSpace=wrap;html=1;" parent="1" vertex="1">
          <mxGeometry x="276" y="1253" width="127" height="69" as="geometry" />
        </mxCell>
        <mxCell id="JrU6R_t-beRwXvnHJSxJ-20" value="&lt;span style=&quot;font-size: 19px;&quot;&gt;sign up&lt;/span&gt;" style="ellipse;whiteSpace=wrap;html=1;" parent="1" vertex="1">
          <mxGeometry x="273" y="1169" width="127" height="69" as="geometry" />
        </mxCell>
        <mxCell id="JrU6R_t-beRwXvnHJSxJ-23" value="&lt;font style=&quot;font-size: 19px;&quot;&gt;UseCase Digram&lt;/font&gt;" style="text;html=1;align=center;verticalAlign=middle;whiteSpace=wrap;rounded=0;" parent="1" vertex="1">
          <mxGeometry x="262" y="1118" width="166" height="30" as="geometry" />
        </mxCell>
        <mxCell id="JrU6R_t-beRwXvnHJSxJ-24" value="&lt;font style=&quot;font-size: 19px;&quot;&gt;volunteer&lt;/font&gt;" style="shape=umlActor;verticalLabelPosition=bottom;verticalAlign=top;html=1;outlineConnect=0;" parent="1" vertex="1">
          <mxGeometry x="-205" y="1510" width="30" height="60" as="geometry" />
        </mxCell>
        <mxCell id="JrU6R_t-beRwXvnHJSxJ-25" value="&lt;font style=&quot;font-size: 19px;&quot;&gt;organization&lt;/font&gt;" style="shape=umlActor;verticalLabelPosition=bottom;verticalAlign=top;html=1;outlineConnect=0;" parent="1" vertex="1">
          <mxGeometry x="906" y="1536" width="30" height="60" as="geometry" />
        </mxCell>
        <mxCell id="JrU6R_t-beRwXvnHJSxJ-30" value="&lt;font style=&quot;font-size: 19px;&quot;&gt;view opportunity&lt;/font&gt;" style="ellipse;whiteSpace=wrap;html=1;" parent="1" vertex="1">
          <mxGeometry x="276" y="1632" width="130" height="80" as="geometry" />
        </mxCell>
        <mxCell id="JrU6R_t-beRwXvnHJSxJ-31" value="&lt;font style=&quot;font-size: 19px;&quot;&gt;&amp;nbsp;request participate&lt;/font&gt;" style="ellipse;whiteSpace=wrap;html=1;" parent="1" vertex="1">
          <mxGeometry x="183" y="1903" width="130" height="80" as="geometry" />
        </mxCell>
        <mxCell id="JrU6R_t-beRwXvnHJSxJ-35" value="" style="endArrow=classic;html=1;rounded=0;entryX=1;entryY=0.5;entryDx=0;entryDy=0;exitX=0;exitY=0.5;exitDx=0;exitDy=0;dashed=1;" parent="1" source="JrU6R_t-beRwXvnHJSxJ-13" target="JrU6R_t-beRwXvnHJSxJ-31" edge="1">
          <mxGeometry width="50" height="50" relative="1" as="geometry">
            <mxPoint x="229" y="1874" as="sourcePoint" />
            <mxPoint x="579" y="2318" as="targetPoint" />
            <Array as="points" />
          </mxGeometry>
        </mxCell>
        <mxCell id="JrU6R_t-beRwXvnHJSxJ-44" value="" style="rounded=0;whiteSpace=wrap;html=1;fillColor=#f8cecc;strokeColor=#b85450;" parent="1" vertex="1">
          <mxGeometry x="-426" y="2298" width="1702" height="60" as="geometry" />
        </mxCell>
        <mxCell id="JrU6R_t-beRwXvnHJSxJ-48" value="" style="endArrow=none;html=1;rounded=0;entryX=0;entryY=0.5;entryDx=0;entryDy=0;" parent="1" target="JrU6R_t-beRwXvnHJSxJ-20" edge="1">
          <mxGeometry width="50" height="50" relative="1" as="geometry">
            <mxPoint x="-146" y="1520" as="sourcePoint" />
            <mxPoint x="257" y="1212" as="targetPoint" />
          </mxGeometry>
        </mxCell>
        <mxCell id="JrU6R_t-beRwXvnHJSxJ-51" value="" style="endArrow=none;html=1;rounded=0;entryX=0;entryY=0.5;entryDx=0;entryDy=0;" parent="1" target="JrU6R_t-beRwXvnHJSxJ-19" edge="1">
          <mxGeometry width="50" height="50" relative="1" as="geometry">
            <mxPoint x="-145" y="1524" as="sourcePoint" />
            <mxPoint x="283" y="1214" as="targetPoint" />
          </mxGeometry>
        </mxCell>
        <mxCell id="JrU6R_t-beRwXvnHJSxJ-52" value="" style="endArrow=none;html=1;rounded=0;entryX=0;entryY=0.5;entryDx=0;entryDy=0;" parent="1" target="JrU6R_t-beRwXvnHJSxJ-17" edge="1">
          <mxGeometry width="50" height="50" relative="1" as="geometry">
            <mxPoint x="-144" y="1527" as="sourcePoint" />
            <mxPoint x="286" y="1298" as="targetPoint" />
          </mxGeometry>
        </mxCell>
        <mxCell id="JrU6R_t-beRwXvnHJSxJ-53" value="" style="endArrow=none;html=1;rounded=0;entryX=0;entryY=0.5;entryDx=0;entryDy=0;" parent="1" target="JrU6R_t-beRwXvnHJSxJ-16" edge="1">
          <mxGeometry width="50" height="50" relative="1" as="geometry">
            <mxPoint x="-142" y="1530" as="sourcePoint" />
            <mxPoint x="289" y="1384" as="targetPoint" />
          </mxGeometry>
        </mxCell>
        <mxCell id="JrU6R_t-beRwXvnHJSxJ-54" value="" style="endArrow=none;html=1;rounded=0;entryX=0;entryY=0.5;entryDx=0;entryDy=0;" parent="1" target="JrU6R_t-beRwXvnHJSxJ-30" edge="1">
          <mxGeometry width="50" height="50" relative="1" as="geometry">
            <mxPoint x="-143" y="1533" as="sourcePoint" />
            <mxPoint x="282" y="1480" as="targetPoint" />
          </mxGeometry>
        </mxCell>
        <mxCell id="JrU6R_t-beRwXvnHJSxJ-55" value="" style="endArrow=none;html=1;rounded=0;entryX=0;entryY=0.5;entryDx=0;entryDy=0;" parent="1" target="JrU6R_t-beRwXvnHJSxJ-31" edge="1">
          <mxGeometry width="50" height="50" relative="1" as="geometry">
            <mxPoint x="-144" y="1536" as="sourcePoint" />
            <mxPoint x="254" y="1704" as="targetPoint" />
          </mxGeometry>
        </mxCell>
        <mxCell id="JrU6R_t-beRwXvnHJSxJ-56" value="" style="endArrow=none;html=1;rounded=0;entryX=1;entryY=0.5;entryDx=0;entryDy=0;" parent="1" target="JrU6R_t-beRwXvnHJSxJ-20" edge="1">
          <mxGeometry width="50" height="50" relative="1" as="geometry">
            <mxPoint x="864" y="1550" as="sourcePoint" />
            <mxPoint x="973" y="1106" as="targetPoint" />
          </mxGeometry>
        </mxCell>
        <mxCell id="JrU6R_t-beRwXvnHJSxJ-57" value="" style="endArrow=none;html=1;rounded=0;entryX=1;entryY=0.5;entryDx=0;entryDy=0;" parent="1" target="JrU6R_t-beRwXvnHJSxJ-17" edge="1">
          <mxGeometry width="50" height="50" relative="1" as="geometry">
            <mxPoint x="857" y="1555" as="sourcePoint" />
            <mxPoint x="399" y="1287" as="targetPoint" />
          </mxGeometry>
        </mxCell>
        <mxCell id="JrU6R_t-beRwXvnHJSxJ-58" value="" style="endArrow=none;html=1;rounded=0;entryX=1;entryY=0.5;entryDx=0;entryDy=0;" parent="1" target="JrU6R_t-beRwXvnHJSxJ-19" edge="1">
          <mxGeometry width="50" height="50" relative="1" as="geometry">
            <mxPoint x="860" y="1552" as="sourcePoint" />
            <mxPoint x="409" y="1384" as="targetPoint" />
          </mxGeometry>
        </mxCell>
        <mxCell id="JrU6R_t-beRwXvnHJSxJ-59" value="" style="endArrow=none;html=1;rounded=0;entryX=1;entryY=0.5;entryDx=0;entryDy=0;" parent="1" target="JrU6R_t-beRwXvnHJSxJ-16" edge="1">
          <mxGeometry width="50" height="50" relative="1" as="geometry">
            <mxPoint x="854" y="1557" as="sourcePoint" />
            <mxPoint x="419" y="1441" as="targetPoint" />
          </mxGeometry>
        </mxCell>
        <mxCell id="JrU6R_t-beRwXvnHJSxJ-60" value="" style="endArrow=none;html=1;rounded=0;entryX=1;entryY=0.5;entryDx=0;entryDy=0;" parent="1" target="JrU6R_t-beRwXvnHJSxJ-12" edge="1">
          <mxGeometry width="50" height="50" relative="1" as="geometry">
            <mxPoint x="851" y="1564" as="sourcePoint" />
            <mxPoint x="412" y="1480" as="targetPoint" />
          </mxGeometry>
        </mxCell>
        <mxCell id="JrU6R_t-beRwXvnHJSxJ-61" value="" style="endArrow=none;html=1;rounded=0;entryX=1;entryY=0.5;entryDx=0;entryDy=0;" parent="1" target="JrU6R_t-beRwXvnHJSxJ-30" edge="1">
          <mxGeometry width="50" height="50" relative="1" as="geometry">
            <mxPoint x="856" y="1570" as="sourcePoint" />
            <mxPoint x="412" y="1591" as="targetPoint" />
          </mxGeometry>
        </mxCell>
        <mxCell id="JrU6R_t-beRwXvnHJSxJ-62" value="" style="endArrow=none;html=1;rounded=0;entryX=1;entryY=0.5;entryDx=0;entryDy=0;" parent="1" target="JrU6R_t-beRwXvnHJSxJ-11" edge="1">
          <mxGeometry width="50" height="50" relative="1" as="geometry">
            <mxPoint x="860" y="1574" as="sourcePoint" />
            <mxPoint x="426" y="1766" as="targetPoint" />
          </mxGeometry>
        </mxCell>
        <mxCell id="JrU6R_t-beRwXvnHJSxJ-63" value="" style="endArrow=none;html=1;rounded=0;entryX=1;entryY=0.5;entryDx=0;entryDy=0;" parent="1" target="JrU6R_t-beRwXvnHJSxJ-10" edge="1">
          <mxGeometry width="50" height="50" relative="1" as="geometry">
            <mxPoint x="861" y="1579" as="sourcePoint" />
            <mxPoint x="414" y="1784" as="targetPoint" />
            <Array as="points" />
          </mxGeometry>
        </mxCell>
        <mxCell id="JrU6R_t-beRwXvnHJSxJ-64" value="" style="endArrow=none;html=1;rounded=0;entryX=1;entryY=0;entryDx=0;entryDy=0;" parent="1" target="JrU6R_t-beRwXvnHJSxJ-13" edge="1">
          <mxGeometry width="50" height="50" relative="1" as="geometry">
            <mxPoint x="865" y="1585" as="sourcePoint" />
            <mxPoint x="416" y="1897" as="targetPoint" />
          </mxGeometry>
        </mxCell>
        <mxCell id="JrU6R_t-beRwXvnHJSxJ-68" value="&amp;lt;&amp;lt;includes&amp;gt;&amp;gt;" style="text;html=1;align=center;verticalAlign=middle;resizable=0;points=[];autosize=1;strokeColor=none;fillColor=none;" parent="1" vertex="1">
          <mxGeometry x="889" y="665" width="90" height="26" as="geometry" />
        </mxCell>
        <mxCell id="JrU6R_t-beRwXvnHJSxJ-71" value="&amp;lt;&amp;lt;includes&amp;gt;&amp;gt;" style="text;html=1;align=center;verticalAlign=middle;resizable=0;points=[];autosize=1;strokeColor=none;fillColor=none;" parent="1" vertex="1">
          <mxGeometry x="352" y="1908" width="90" height="26" as="geometry" />
        </mxCell>
        <mxCell id="JrU6R_t-beRwXvnHJSxJ-76" value="&lt;span style=&quot;font-size: 19px;&quot;&gt;view&amp;nbsp; request status&lt;/span&gt;" style="ellipse;whiteSpace=wrap;html=1;" parent="1" vertex="1">
          <mxGeometry x="127" y="1990" width="130" height="80" as="geometry" />
        </mxCell>
        <mxCell id="JrU6R_t-beRwXvnHJSxJ-77" value="" style="endArrow=none;html=1;rounded=0;entryX=0;entryY=0.5;entryDx=0;entryDy=0;" parent="1" target="JrU6R_t-beRwXvnHJSxJ-76" edge="1">
          <mxGeometry width="50" height="50" relative="1" as="geometry">
            <mxPoint x="-149" y="1560" as="sourcePoint" />
            <mxPoint x="40" y="2055" as="targetPoint" />
          </mxGeometry>
        </mxCell>
        <mxCell id="JrU6R_t-beRwXvnHJSxJ-78" value="" style="rounded=0;whiteSpace=wrap;html=1;" parent="1" vertex="1">
          <mxGeometry x="-121" y="2698" width="899" height="979" as="geometry" />
        </mxCell>
        <mxCell id="JrU6R_t-beRwXvnHJSxJ-79" value="&lt;font style=&quot;font-size: 19px;&quot;&gt;&lt;b&gt;delete opportunity&lt;/b&gt;&lt;/font&gt;" style="ellipse;whiteSpace=wrap;html=1;" parent="1" vertex="1">
          <mxGeometry x="246" y="3397" width="130" height="80" as="geometry" />
        </mxCell>
        <mxCell id="JrU6R_t-beRwXvnHJSxJ-80" value="&lt;font style=&quot;font-size: 19px;&quot;&gt;&lt;b&gt;edit opportunity&lt;/b&gt;&lt;/font&gt;" style="ellipse;whiteSpace=wrap;html=1;" parent="1" vertex="1">
          <mxGeometry x="244" y="3303" width="130" height="80" as="geometry" />
        </mxCell>
        <mxCell id="JrU6R_t-beRwXvnHJSxJ-81" value="&lt;font style=&quot;font-size: 19px;&quot;&gt;&lt;b&gt;post opportunity&lt;/b&gt;&lt;/font&gt;" style="ellipse;whiteSpace=wrap;html=1;" parent="1" vertex="1">
          <mxGeometry x="241.5" y="3124" width="130" height="80" as="geometry" />
        </mxCell>
        <mxCell id="JrU6R_t-beRwXvnHJSxJ-82" value="&lt;font style=&quot;font-size: 19px;&quot;&gt;&lt;b&gt;accpect or reject request&lt;/b&gt;&lt;/font&gt;" style="ellipse;whiteSpace=wrap;html=1;" parent="1" vertex="1">
          <mxGeometry x="442" y="3467" width="151" height="80" as="geometry" />
        </mxCell>
        <mxCell id="JrU6R_t-beRwXvnHJSxJ-83" value="&lt;font style=&quot;font-size: 19px;&quot;&gt;&lt;b&gt;delete account&lt;/b&gt;&lt;/font&gt;" style="ellipse;whiteSpace=wrap;html=1;" parent="1" vertex="1">
          <mxGeometry x="241.5" y="3013" width="130" height="80" as="geometry" />
        </mxCell>
        <mxCell id="JrU6R_t-beRwXvnHJSxJ-84" value="&lt;font style=&quot;font-size: 19px;&quot;&gt;&lt;b&gt;edit profile&lt;/b&gt;&lt;/font&gt;" style="ellipse;whiteSpace=wrap;html=1;" parent="1" vertex="1">
          <mxGeometry x="249" y="2917" width="120" height="80" as="geometry" />
        </mxCell>
        <mxCell id="JrU6R_t-beRwXvnHJSxJ-85" value="&lt;span style=&quot;font-size: 19px;&quot;&gt;&lt;b&gt;log in&lt;/b&gt;&lt;/span&gt;" style="ellipse;whiteSpace=wrap;html=1;" parent="1" vertex="1">
          <mxGeometry x="246" y="2836" width="127" height="69" as="geometry" />
        </mxCell>
        <mxCell id="JrU6R_t-beRwXvnHJSxJ-86" value="&lt;span style=&quot;font-size: 19px;&quot;&gt;&lt;b&gt;sign up&lt;/b&gt;&lt;/span&gt;" style="ellipse;whiteSpace=wrap;html=1;" parent="1" vertex="1">
          <mxGeometry x="243" y="2752" width="127" height="69" as="geometry" />
        </mxCell>
        <mxCell id="JrU6R_t-beRwXvnHJSxJ-87" value="&lt;font size=&quot;1&quot; style=&quot;&quot;&gt;&lt;b style=&quot;font-size: 25px;&quot;&gt;Use Case Diagram&lt;/b&gt;&lt;/font&gt;" style="text;html=1;align=center;verticalAlign=middle;whiteSpace=wrap;rounded=0;" parent="1" vertex="1">
          <mxGeometry x="146" y="2698" width="361" height="30" as="geometry" />
        </mxCell>
        <mxCell id="JrU6R_t-beRwXvnHJSxJ-88" value="&lt;font style=&quot;font-size: 19px;&quot;&gt;&lt;b&gt;volunteer&lt;/b&gt;&lt;/font&gt;" style="shape=umlActor;verticalLabelPosition=bottom;verticalAlign=top;html=1;outlineConnect=0;" parent="1" vertex="1">
          <mxGeometry x="-235" y="3093" width="30" height="60" as="geometry" />
        </mxCell>
        <mxCell id="JrU6R_t-beRwXvnHJSxJ-89" value="&lt;font style=&quot;font-size: 19px;&quot;&gt;&lt;b&gt;organization&lt;/b&gt;&lt;/font&gt;" style="shape=umlActor;verticalLabelPosition=bottom;verticalAlign=top;html=1;outlineConnect=0;" parent="1" vertex="1">
          <mxGeometry x="876" y="3119" width="30" height="60" as="geometry" />
        </mxCell>
        <mxCell id="JrU6R_t-beRwXvnHJSxJ-90" value="&lt;font style=&quot;font-size: 19px;&quot;&gt;&lt;b&gt;view opportunity&lt;/b&gt;&lt;/font&gt;" style="ellipse;whiteSpace=wrap;html=1;" parent="1" vertex="1">
          <mxGeometry x="246" y="3215" width="130" height="80" as="geometry" />
        </mxCell>
        <mxCell id="JrU6R_t-beRwXvnHJSxJ-91" value="&lt;font style=&quot;font-size: 19px;&quot;&gt;&lt;b&gt;&amp;nbsp;request participate&lt;/b&gt;&lt;/font&gt;" style="ellipse;whiteSpace=wrap;html=1;" parent="1" vertex="1">
          <mxGeometry x="153" y="3486" width="130" height="80" as="geometry" />
        </mxCell>
        <mxCell id="JrU6R_t-beRwXvnHJSxJ-92" value="" style="endArrow=classic;html=1;rounded=0;entryX=1;entryY=0.5;entryDx=0;entryDy=0;exitX=0;exitY=0.5;exitDx=0;exitDy=0;dashed=1;" parent="1" source="JrU6R_t-beRwXvnHJSxJ-82" target="JrU6R_t-beRwXvnHJSxJ-91" edge="1">
          <mxGeometry width="50" height="50" relative="1" as="geometry">
            <mxPoint x="199" y="3457" as="sourcePoint" />
            <mxPoint x="549" y="3901" as="targetPoint" />
            <Array as="points" />
          </mxGeometry>
        </mxCell>
        <mxCell id="JrU6R_t-beRwXvnHJSxJ-93" value="" style="endArrow=none;html=1;rounded=0;entryX=0;entryY=0.5;entryDx=0;entryDy=0;" parent="1" target="JrU6R_t-beRwXvnHJSxJ-86" edge="1">
          <mxGeometry width="50" height="50" relative="1" as="geometry">
            <mxPoint x="-201" y="3116" as="sourcePoint" />
            <mxPoint x="227" y="2795" as="targetPoint" />
          </mxGeometry>
        </mxCell>
        <mxCell id="JrU6R_t-beRwXvnHJSxJ-94" value="" style="endArrow=none;html=1;rounded=0;entryX=0;entryY=0.5;entryDx=0;entryDy=0;" parent="1" target="JrU6R_t-beRwXvnHJSxJ-85" edge="1">
          <mxGeometry width="50" height="50" relative="1" as="geometry">
            <mxPoint x="-201" y="3116" as="sourcePoint" />
            <mxPoint x="253" y="2797" as="targetPoint" />
          </mxGeometry>
        </mxCell>
        <mxCell id="JrU6R_t-beRwXvnHJSxJ-95" value="" style="endArrow=none;html=1;rounded=0;entryX=0;entryY=0.5;entryDx=0;entryDy=0;" parent="1" target="JrU6R_t-beRwXvnHJSxJ-84" edge="1">
          <mxGeometry width="50" height="50" relative="1" as="geometry">
            <mxPoint x="-201" y="3116" as="sourcePoint" />
            <mxPoint x="256" y="2881" as="targetPoint" />
          </mxGeometry>
        </mxCell>
        <mxCell id="JrU6R_t-beRwXvnHJSxJ-96" value="" style="endArrow=none;html=1;rounded=0;entryX=0;entryY=0.5;entryDx=0;entryDy=0;" parent="1" target="JrU6R_t-beRwXvnHJSxJ-83" edge="1">
          <mxGeometry width="50" height="50" relative="1" as="geometry">
            <mxPoint x="-201" y="3116" as="sourcePoint" />
            <mxPoint x="259" y="2967" as="targetPoint" />
          </mxGeometry>
        </mxCell>
        <mxCell id="JrU6R_t-beRwXvnHJSxJ-97" value="" style="endArrow=none;html=1;rounded=0;entryX=0;entryY=0.5;entryDx=0;entryDy=0;" parent="1" target="JrU6R_t-beRwXvnHJSxJ-90" edge="1">
          <mxGeometry width="50" height="50" relative="1" as="geometry">
            <mxPoint x="-201" y="3116" as="sourcePoint" />
            <mxPoint x="252" y="3063" as="targetPoint" />
          </mxGeometry>
        </mxCell>
        <mxCell id="JrU6R_t-beRwXvnHJSxJ-98" value="" style="endArrow=none;html=1;rounded=0;entryX=0;entryY=0.5;entryDx=0;entryDy=0;" parent="1" target="JrU6R_t-beRwXvnHJSxJ-91" edge="1">
          <mxGeometry width="50" height="50" relative="1" as="geometry">
            <mxPoint x="-201" y="3116" as="sourcePoint" />
            <mxPoint x="224" y="3287" as="targetPoint" />
          </mxGeometry>
        </mxCell>
        <mxCell id="JrU6R_t-beRwXvnHJSxJ-99" value="" style="endArrow=none;html=1;rounded=0;entryX=1;entryY=0.5;entryDx=0;entryDy=0;" parent="1" target="JrU6R_t-beRwXvnHJSxJ-86" edge="1">
          <mxGeometry width="50" height="50" relative="1" as="geometry">
            <mxPoint x="860" y="3140" as="sourcePoint" />
            <mxPoint x="943" y="2689" as="targetPoint" />
          </mxGeometry>
        </mxCell>
        <mxCell id="JrU6R_t-beRwXvnHJSxJ-100" value="" style="endArrow=none;html=1;rounded=0;entryX=1;entryY=0.5;entryDx=0;entryDy=0;" parent="1" target="JrU6R_t-beRwXvnHJSxJ-84" edge="1">
          <mxGeometry width="50" height="50" relative="1" as="geometry">
            <mxPoint x="860" y="3140" as="sourcePoint" />
            <mxPoint x="369" y="2870" as="targetPoint" />
          </mxGeometry>
        </mxCell>
        <mxCell id="JrU6R_t-beRwXvnHJSxJ-101" value="" style="endArrow=none;html=1;rounded=0;entryX=1;entryY=0.5;entryDx=0;entryDy=0;" parent="1" target="JrU6R_t-beRwXvnHJSxJ-85" edge="1">
          <mxGeometry width="50" height="50" relative="1" as="geometry">
            <mxPoint x="860" y="3140" as="sourcePoint" />
            <mxPoint x="379" y="2967" as="targetPoint" />
          </mxGeometry>
        </mxCell>
        <mxCell id="JrU6R_t-beRwXvnHJSxJ-102" value="" style="endArrow=none;html=1;rounded=0;entryX=1;entryY=0.5;entryDx=0;entryDy=0;" parent="1" target="JrU6R_t-beRwXvnHJSxJ-83" edge="1">
          <mxGeometry width="50" height="50" relative="1" as="geometry">
            <mxPoint x="860" y="3140" as="sourcePoint" />
            <mxPoint x="389" y="3024" as="targetPoint" />
          </mxGeometry>
        </mxCell>
        <mxCell id="JrU6R_t-beRwXvnHJSxJ-103" value="" style="endArrow=none;html=1;rounded=0;entryX=1;entryY=0.5;entryDx=0;entryDy=0;" parent="1" target="JrU6R_t-beRwXvnHJSxJ-81" edge="1">
          <mxGeometry width="50" height="50" relative="1" as="geometry">
            <mxPoint x="860" y="3140" as="sourcePoint" />
            <mxPoint x="382" y="3063" as="targetPoint" />
          </mxGeometry>
        </mxCell>
        <mxCell id="JrU6R_t-beRwXvnHJSxJ-104" value="" style="endArrow=none;html=1;rounded=0;entryX=1;entryY=0.5;entryDx=0;entryDy=0;" parent="1" target="JrU6R_t-beRwXvnHJSxJ-90" edge="1">
          <mxGeometry width="50" height="50" relative="1" as="geometry">
            <mxPoint x="860" y="3140" as="sourcePoint" />
            <mxPoint x="382" y="3174" as="targetPoint" />
          </mxGeometry>
        </mxCell>
        <mxCell id="JrU6R_t-beRwXvnHJSxJ-105" value="" style="endArrow=none;html=1;rounded=0;entryX=1;entryY=0.5;entryDx=0;entryDy=0;" parent="1" target="JrU6R_t-beRwXvnHJSxJ-80" edge="1">
          <mxGeometry width="50" height="50" relative="1" as="geometry">
            <mxPoint x="860" y="3140" as="sourcePoint" />
            <mxPoint x="396" y="3349" as="targetPoint" />
          </mxGeometry>
        </mxCell>
        <mxCell id="JrU6R_t-beRwXvnHJSxJ-106" value="" style="endArrow=none;html=1;rounded=0;entryX=1;entryY=0.5;entryDx=0;entryDy=0;" parent="1" target="JrU6R_t-beRwXvnHJSxJ-79" edge="1">
          <mxGeometry width="50" height="50" relative="1" as="geometry">
            <mxPoint x="860" y="3140" as="sourcePoint" />
            <mxPoint x="384" y="3367" as="targetPoint" />
            <Array as="points" />
          </mxGeometry>
        </mxCell>
        <mxCell id="JrU6R_t-beRwXvnHJSxJ-107" value="" style="endArrow=none;html=1;rounded=0;entryX=1;entryY=0;entryDx=0;entryDy=0;" parent="1" target="JrU6R_t-beRwXvnHJSxJ-82" edge="1">
          <mxGeometry width="50" height="50" relative="1" as="geometry">
            <mxPoint x="860" y="3140" as="sourcePoint" />
            <mxPoint x="386" y="3480" as="targetPoint" />
          </mxGeometry>
        </mxCell>
        <mxCell id="JrU6R_t-beRwXvnHJSxJ-108" value="&lt;b&gt;&amp;lt;&amp;lt;include&amp;gt;&amp;gt;&lt;/b&gt;" style="text;html=1;align=center;verticalAlign=middle;resizable=0;points=[];autosize=1;strokeColor=none;fillColor=none;" parent="1" vertex="1">
          <mxGeometry x="324" y="3491" width="88" height="26" as="geometry" />
        </mxCell>
        <mxCell id="JrU6R_t-beRwXvnHJSxJ-109" value="&lt;span style=&quot;font-size: 19px;&quot;&gt;&lt;b&gt;view&amp;nbsp; request statu&lt;/b&gt;&lt;/span&gt;" style="ellipse;whiteSpace=wrap;html=1;" parent="1" vertex="1">
          <mxGeometry x="97" y="3573" width="147" height="80" as="geometry" />
        </mxCell>
        <mxCell id="JrU6R_t-beRwXvnHJSxJ-110" value="" style="endArrow=none;html=1;rounded=0;entryX=0;entryY=0.5;entryDx=0;entryDy=0;" parent="1" target="JrU6R_t-beRwXvnHJSxJ-109" edge="1">
          <mxGeometry width="50" height="50" relative="1" as="geometry">
            <mxPoint x="-201" y="3116" as="sourcePoint" />
            <mxPoint x="10" y="3638" as="targetPoint" />
          </mxGeometry>
        </mxCell>
        <mxCell id="v5W9x49vFt0BPGCcM8Dg-1" value="" style="rounded=0;whiteSpace=wrap;html=1;fillColor=#f8cecc;strokeColor=#b85450;" vertex="1" parent="1">
          <mxGeometry x="-426" y="757" width="1702" height="60" as="geometry" />
        </mxCell>
      </root>
    </mxGraphModel>
  </diagram>
</mxfile>
